<mxfile host="Electron" agent="Mozilla/5.0 (X11; Linux x86_64) AppleWebKit/537.36 (KHTML, like Gecko) draw.io/27.0.5 Chrome/134.0.6998.205 Electron/35.3.0 Safari/537.36" version="27.0.5">
  <diagram name="Page-1" id="86FQqLXESPEhn5aoLGQq">
    <mxGraphModel dx="806" dy="531" grid="1" gridSize="10" guides="1" tooltips="1" connect="1" arrows="1" fold="1" page="1" pageScale="1" pageWidth="850" pageHeight="1100" math="0" shadow="0">
      <root>
        <mxCell id="0" />
        <mxCell id="1" parent="0" />
        <mxCell id="zCoD14UEF5vh_9ALSuf0-4" value="&lt;b&gt;&lt;font style=&quot;font-size: 20px;&quot;&gt;Integration Model&amp;nbsp;&lt;/font&gt;&lt;/b&gt;" style="text;html=1;align=center;verticalAlign=middle;whiteSpace=wrap;rounded=0;" vertex="1" parent="1">
          <mxGeometry x="290" y="30" width="250" height="30" as="geometry" />
        </mxCell>
        <mxCell id="zCoD14UEF5vh_9ALSuf0-7" value="&lt;b&gt;&lt;font&gt;crm_sales_details&lt;/font&gt;&lt;/b&gt;" style="swimlane;fontStyle=0;childLayout=stackLayout;horizontal=1;startSize=30;horizontalStack=0;resizeParent=1;resizeParentMax=0;resizeLast=0;collapsible=1;marginBottom=0;whiteSpace=wrap;html=1;swimlaneFillColor=none;fillColor=#dae8fc;strokeColor=#6c8ebf;dashed=1;dashPattern=1 1;rounded=1;gradientColor=#7ea6e0;" vertex="1" parent="1">
          <mxGeometry x="60" y="190" width="120" height="90" as="geometry" />
        </mxCell>
        <mxCell id="zCoD14UEF5vh_9ALSuf0-8" value="&lt;font&gt;&lt;b style=&quot;&quot;&gt;prd_key&lt;/b&gt;&lt;/font&gt;" style="text;strokeColor=none;fillColor=none;align=left;verticalAlign=middle;spacingLeft=4;spacingRight=4;overflow=hidden;points=[[0,0.5],[1,0.5]];portConstraint=eastwest;rotatable=0;whiteSpace=wrap;html=1;" vertex="1" parent="zCoD14UEF5vh_9ALSuf0-7">
          <mxGeometry y="30" width="120" height="30" as="geometry" />
        </mxCell>
        <mxCell id="zCoD14UEF5vh_9ALSuf0-9" value="&lt;b&gt;&lt;font&gt;cst_id&lt;/font&gt;&lt;/b&gt;" style="text;strokeColor=none;fillColor=none;align=left;verticalAlign=middle;spacingLeft=4;spacingRight=4;overflow=hidden;points=[[0,0.5],[1,0.5]];portConstraint=eastwest;rotatable=0;whiteSpace=wrap;html=1;" vertex="1" parent="zCoD14UEF5vh_9ALSuf0-7">
          <mxGeometry y="60" width="120" height="30" as="geometry" />
        </mxCell>
        <mxCell id="zCoD14UEF5vh_9ALSuf0-12" value="&lt;b&gt;&lt;font&gt;crm_products&lt;/font&gt;&lt;/b&gt;" style="swimlane;fontStyle=0;childLayout=stackLayout;horizontal=1;startSize=30;horizontalStack=0;resizeParent=1;resizeParentMax=0;resizeLast=0;collapsible=1;marginBottom=0;whiteSpace=wrap;html=1;swimlaneFillColor=none;fillColor=#dae8fc;strokeColor=#6c8ebf;dashed=1;dashPattern=1 1;rounded=1;gradientColor=#7ea6e0;" vertex="1" parent="1">
          <mxGeometry x="240" y="150" width="120" height="60" as="geometry" />
        </mxCell>
        <mxCell id="zCoD14UEF5vh_9ALSuf0-13" value="&lt;font&gt;&lt;b style=&quot;&quot;&gt;prd_key&lt;/b&gt;&lt;/font&gt;" style="text;strokeColor=none;fillColor=none;align=left;verticalAlign=middle;spacingLeft=4;spacingRight=4;overflow=hidden;points=[[0,0.5],[1,0.5]];portConstraint=eastwest;rotatable=0;whiteSpace=wrap;html=1;" vertex="1" parent="zCoD14UEF5vh_9ALSuf0-12">
          <mxGeometry y="30" width="120" height="30" as="geometry" />
        </mxCell>
        <mxCell id="zCoD14UEF5vh_9ALSuf0-15" value="&lt;b&gt;&lt;font&gt;crm_cust_info&lt;/font&gt;&lt;/b&gt;" style="swimlane;fontStyle=0;childLayout=stackLayout;horizontal=1;startSize=30;horizontalStack=0;resizeParent=1;resizeParentMax=0;resizeLast=0;collapsible=1;marginBottom=0;whiteSpace=wrap;html=1;swimlaneFillColor=none;fillColor=#dae8fc;strokeColor=#6c8ebf;dashed=1;dashPattern=1 1;rounded=1;gradientColor=#7ea6e0;" vertex="1" parent="1">
          <mxGeometry x="240" y="260" width="120" height="90" as="geometry" />
        </mxCell>
        <mxCell id="zCoD14UEF5vh_9ALSuf0-16" value="&lt;font&gt;&lt;b style=&quot;&quot;&gt;cst_id&lt;/b&gt;&lt;/font&gt;" style="text;strokeColor=none;fillColor=none;align=left;verticalAlign=middle;spacingLeft=4;spacingRight=4;overflow=hidden;points=[[0,0.5],[1,0.5]];portConstraint=eastwest;rotatable=0;whiteSpace=wrap;html=1;" vertex="1" parent="zCoD14UEF5vh_9ALSuf0-15">
          <mxGeometry y="30" width="120" height="30" as="geometry" />
        </mxCell>
        <mxCell id="zCoD14UEF5vh_9ALSuf0-17" value="&lt;b&gt;&lt;font&gt;cst_key&lt;/font&gt;&lt;/b&gt;" style="text;strokeColor=none;fillColor=none;align=left;verticalAlign=middle;spacingLeft=4;spacingRight=4;overflow=hidden;points=[[0,0.5],[1,0.5]];portConstraint=eastwest;rotatable=0;whiteSpace=wrap;html=1;" vertex="1" parent="zCoD14UEF5vh_9ALSuf0-15">
          <mxGeometry y="60" width="120" height="30" as="geometry" />
        </mxCell>
        <mxCell id="zCoD14UEF5vh_9ALSuf0-18" style="edgeStyle=orthogonalEdgeStyle;rounded=0;orthogonalLoop=1;jettySize=auto;html=1;entryX=0;entryY=0.5;entryDx=0;entryDy=0;" edge="1" parent="1" source="zCoD14UEF5vh_9ALSuf0-8" target="zCoD14UEF5vh_9ALSuf0-13">
          <mxGeometry relative="1" as="geometry" />
        </mxCell>
        <mxCell id="zCoD14UEF5vh_9ALSuf0-19" style="edgeStyle=orthogonalEdgeStyle;rounded=0;orthogonalLoop=1;jettySize=auto;html=1;entryX=0;entryY=0.5;entryDx=0;entryDy=0;" edge="1" parent="1" source="zCoD14UEF5vh_9ALSuf0-9" target="zCoD14UEF5vh_9ALSuf0-16">
          <mxGeometry relative="1" as="geometry" />
        </mxCell>
        <mxCell id="zCoD14UEF5vh_9ALSuf0-20" value="" style="rounded=1;whiteSpace=wrap;html=1;fillColor=none;" vertex="1" parent="1">
          <mxGeometry x="40" y="100" width="350" height="290" as="geometry" />
        </mxCell>
        <mxCell id="zCoD14UEF5vh_9ALSuf0-21" value="&lt;font style=&quot;font-size: 18px;&quot;&gt;&lt;b style=&quot;&quot;&gt;CRM&lt;/b&gt;&lt;/font&gt;" style="rounded=1;whiteSpace=wrap;html=1;fillColor=#dae8fc;strokeColor=#6c8ebf;gradientColor=#7ea6e0;" vertex="1" parent="1">
          <mxGeometry x="165" y="80" width="100" height="40" as="geometry" />
        </mxCell>
        <mxCell id="zCoD14UEF5vh_9ALSuf0-22" value="&lt;b&gt;erp_px_cat_g1v2&lt;/b&gt;" style="swimlane;fontStyle=0;childLayout=stackLayout;horizontal=1;startSize=30;horizontalStack=0;resizeParent=1;resizeParentMax=0;resizeLast=0;collapsible=1;marginBottom=0;whiteSpace=wrap;html=1;dashed=1;dashPattern=1 1;rounded=1;fillColor=#fff2cc;strokeColor=#d6b656;gradientColor=#ffd966;" vertex="1" parent="1">
          <mxGeometry x="560" y="130" width="180" height="60" as="geometry" />
        </mxCell>
        <mxCell id="zCoD14UEF5vh_9ALSuf0-23" value="&lt;b&gt;&lt;font style=&quot;font-size: 13px;&quot;&gt;id&lt;/font&gt;&lt;/b&gt;" style="text;strokeColor=none;fillColor=none;align=left;verticalAlign=middle;spacingLeft=4;spacingRight=4;overflow=hidden;points=[[0,0.5],[1,0.5]];portConstraint=eastwest;rotatable=0;whiteSpace=wrap;html=1;" vertex="1" parent="zCoD14UEF5vh_9ALSuf0-22">
          <mxGeometry y="30" width="180" height="30" as="geometry" />
        </mxCell>
        <mxCell id="zCoD14UEF5vh_9ALSuf0-26" value="&lt;b&gt;erp_cust_az12&lt;/b&gt;" style="swimlane;fontStyle=0;childLayout=stackLayout;horizontal=1;startSize=30;horizontalStack=0;resizeParent=1;resizeParentMax=0;resizeLast=0;collapsible=1;marginBottom=0;whiteSpace=wrap;html=1;dashed=1;dashPattern=1 1;rounded=1;fillColor=#fff2cc;gradientColor=#ffd966;strokeColor=#d6b656;" vertex="1" parent="1">
          <mxGeometry x="560" y="215" width="180" height="60" as="geometry" />
        </mxCell>
        <mxCell id="zCoD14UEF5vh_9ALSuf0-27" value="&lt;b&gt;&lt;font style=&quot;font-size: 13px;&quot;&gt;cid&lt;/font&gt;&lt;/b&gt;" style="text;strokeColor=none;fillColor=none;align=left;verticalAlign=middle;spacingLeft=4;spacingRight=4;overflow=hidden;points=[[0,0.5],[1,0.5]];portConstraint=eastwest;rotatable=0;whiteSpace=wrap;html=1;" vertex="1" parent="zCoD14UEF5vh_9ALSuf0-26">
          <mxGeometry y="30" width="180" height="30" as="geometry" />
        </mxCell>
        <mxCell id="zCoD14UEF5vh_9ALSuf0-28" value="&lt;b&gt;erp_px_cat_g1v2&lt;/b&gt;" style="swimlane;fontStyle=0;childLayout=stackLayout;horizontal=1;startSize=30;horizontalStack=0;resizeParent=1;resizeParentMax=0;resizeLast=0;collapsible=1;marginBottom=0;whiteSpace=wrap;html=1;dashed=1;dashPattern=1 1;rounded=1;fillColor=#fff2cc;gradientColor=#ffd966;strokeColor=#d6b656;" vertex="1" parent="1">
          <mxGeometry x="560" y="310" width="180" height="60" as="geometry" />
        </mxCell>
        <mxCell id="zCoD14UEF5vh_9ALSuf0-29" value="&lt;b&gt;&lt;font style=&quot;font-size: 13px;&quot;&gt;id&lt;/font&gt;&lt;/b&gt;" style="text;strokeColor=none;fillColor=none;align=left;verticalAlign=middle;spacingLeft=4;spacingRight=4;overflow=hidden;points=[[0,0.5],[1,0.5]];portConstraint=eastwest;rotatable=0;whiteSpace=wrap;html=1;" vertex="1" parent="zCoD14UEF5vh_9ALSuf0-28">
          <mxGeometry y="30" width="180" height="30" as="geometry" />
        </mxCell>
        <mxCell id="zCoD14UEF5vh_9ALSuf0-31" value="" style="rounded=1;whiteSpace=wrap;html=1;fillColor=none;" vertex="1" parent="1">
          <mxGeometry x="440" y="100" width="350" height="290" as="geometry" />
        </mxCell>
        <mxCell id="zCoD14UEF5vh_9ALSuf0-32" value="&lt;font style=&quot;font-size: 18px;&quot;&gt;&lt;b style=&quot;&quot;&gt;ERP&lt;/b&gt;&lt;/font&gt;" style="rounded=1;whiteSpace=wrap;html=1;fillColor=#fff2cc;strokeColor=#d6b656;gradientColor=#ffd966;" vertex="1" parent="1">
          <mxGeometry x="565" y="80" width="100" height="40" as="geometry" />
        </mxCell>
        <mxCell id="zCoD14UEF5vh_9ALSuf0-34" style="edgeStyle=orthogonalEdgeStyle;rounded=0;orthogonalLoop=1;jettySize=auto;html=1;exitX=1;exitY=0.5;exitDx=0;exitDy=0;entryX=0.056;entryY=0.667;entryDx=0;entryDy=0;entryPerimeter=0;" edge="1" parent="1" source="zCoD14UEF5vh_9ALSuf0-12" target="zCoD14UEF5vh_9ALSuf0-23">
          <mxGeometry relative="1" as="geometry" />
        </mxCell>
        <mxCell id="zCoD14UEF5vh_9ALSuf0-35" style="edgeStyle=orthogonalEdgeStyle;rounded=0;orthogonalLoop=1;jettySize=auto;html=1;exitX=1;exitY=0.5;exitDx=0;exitDy=0;entryX=0;entryY=0.5;entryDx=0;entryDy=0;" edge="1" parent="1" source="zCoD14UEF5vh_9ALSuf0-17" target="zCoD14UEF5vh_9ALSuf0-27">
          <mxGeometry relative="1" as="geometry" />
        </mxCell>
        <mxCell id="zCoD14UEF5vh_9ALSuf0-37" style="edgeStyle=orthogonalEdgeStyle;rounded=0;orthogonalLoop=1;jettySize=auto;html=1;entryX=0;entryY=0.5;entryDx=0;entryDy=0;" edge="1" parent="1" source="zCoD14UEF5vh_9ALSuf0-16" target="zCoD14UEF5vh_9ALSuf0-29">
          <mxGeometry relative="1" as="geometry" />
        </mxCell>
        <mxCell id="zCoD14UEF5vh_9ALSuf0-38" value="Products" style="rounded=0;whiteSpace=wrap;html=1;fillColor=#f8cecc;gradientColor=#ea6b66;strokeColor=#b85450;" vertex="1" parent="1">
          <mxGeometry x="262.5" y="200" width="75" height="20" as="geometry" />
        </mxCell>
        <mxCell id="zCoD14UEF5vh_9ALSuf0-39" value="Products" style="rounded=0;whiteSpace=wrap;html=1;fillColor=#f8cecc;gradientColor=#ea6b66;strokeColor=#b85450;" vertex="1" parent="1">
          <mxGeometry x="620" y="180" width="75" height="20" as="geometry" />
        </mxCell>
        <mxCell id="zCoD14UEF5vh_9ALSuf0-40" value="Customers" style="rounded=0;whiteSpace=wrap;html=1;fillColor=#d5e8d4;gradientColor=#97d077;strokeColor=#82b366;" vertex="1" parent="1">
          <mxGeometry x="612.5" y="260" width="75" height="20" as="geometry" />
        </mxCell>
        <mxCell id="zCoD14UEF5vh_9ALSuf0-41" value="Customers" style="rounded=0;whiteSpace=wrap;html=1;fillColor=#d5e8d4;gradientColor=#97d077;strokeColor=#82b366;" vertex="1" parent="1">
          <mxGeometry x="612.5" y="360" width="75" height="20" as="geometry" />
        </mxCell>
        <mxCell id="zCoD14UEF5vh_9ALSuf0-42" value="Customers" style="rounded=0;whiteSpace=wrap;html=1;fillColor=#d5e8d4;gradientColor=#97d077;strokeColor=#82b366;" vertex="1" parent="1">
          <mxGeometry x="265" y="340" width="75" height="20" as="geometry" />
        </mxCell>
        <mxCell id="zCoD14UEF5vh_9ALSuf0-43" value="Sales" style="rounded=0;whiteSpace=wrap;html=1;fillColor=#e6d0de;strokeColor=#996185;gradientColor=#d5739d;" vertex="1" parent="1">
          <mxGeometry x="82.5" y="280" width="75" height="20" as="geometry" />
        </mxCell>
      </root>
    </mxGraphModel>
  </diagram>
</mxfile>
